<svg xmlns="http://www.w3.org/2000/svg" width="120" height="120" viewBox="0 0 120 120">
  <defs>
    <radialGradient id="bg3" cx="50%" cy="40%" r="60%">
      <stop offset="0%" stop-color="#0e1a10"/>
      <stop offset="100%" stop-color="#080d09"/>
    </radialGradient>
  </defs>
  <circle cx="60" cy="60" r="60" fill="url(#bg3)"/>
  <!-- Kandura (white robe) -->
  <path d="M32 100 Q60 112 88 100 L92 120 H28Z" fill="#f8f8f8"/>
  <!-- Ghutra (headscarf) - white -->
  <path d="M36 48 Q38 30 60 30 Q82 30 84 48Z" fill="#f8f8f8"/>
  <!-- Agal (black ring) -->
  <ellipse cx="60" cy="48" rx="25" ry="7" fill="#111" opacity="0.9"/>
  <!-- Ghutra drape left -->
  <path d="M36 48 Q30 60 32 80 Q40 90 44 85 Q38 70 40 55Z" fill="#f8f8f8" opacity="0.95"/>
  <!-- Neck -->
  <rect x="54" y="80" width="12" height="15" rx="6" fill="#b08060"/>
  <!-- Head -->
  <ellipse cx="60" cy="65" rx="22" ry="24" fill="#b08060"/>
  <!-- Beard -->
  <path d="M40 75 Q45 90 60 93 Q75 90 80 75 Q72 80 60 82 Q48 80 40 75Z" fill="#222" opacity="0.85"/>
  <!-- Mustache -->
  <path d="M50 73 Q60 77 70 73" stroke="#222" stroke-width="3" fill="none" stroke-linecap="round"/>
  <!-- Eyes -->
  <ellipse cx="51" cy="62" rx="3.5" ry="3" fill="#1a0a00"/>
  <ellipse cx="69" cy="62" rx="3.5" ry="3" fill="#1a0a00"/>
  <!-- Eyebrows -->
  <path d="M46 56 Q51 53 56 56" stroke="#333" stroke-width="2.5" fill="none" stroke-linecap="round"/>
  <path d="M64 56 Q69 53 74 56" stroke="#333" stroke-width="2.5" fill="none" stroke-linecap="round"/>
  <!-- Nose -->
  <path d="M58 65 Q57 70 59 72 Q61 70 63 72" stroke="#906040" stroke-width="1.5" fill="none" stroke-linecap="round"/>
  <circle cx="60" cy="60" r="58" fill="none" stroke="#c9a84c" stroke-width="1.5" opacity="0.5"/>
</svg>
