<svg xmlns="http://www.w3.org/2000/svg" width="120" height="120" viewBox="0 0 120 120">
  <defs>
    <radialGradient id="bg4" cx="50%" cy="40%" r="60%">
      <stop offset="0%" stop-color="#1a1020"/>
      <stop offset="100%" stop-color="#0a0812"/>
    </radialGradient>
  </defs>
  <circle cx="60" cy="60" r="60" fill="url(#bg4)"/>
  <!-- Suit jacket -->
  <path d="M30 105 Q60 118 90 105 L92 120 H28Z" fill="#1e1e2e"/>
  <path d="M40 98 Q60 108 80 98 L82 120 H38 Z" fill="#28283e"/>
  <!-- Tie -->
  <path d="M58 90 L60 100 L62 90 L61 85 L60 87 L59 85Z" fill="#c9a84c"/>
  <!-- Neck -->
  <rect x="54" y="80" width="12" height="15" rx="6" fill="#d4a888"/>
  <!-- Head -->
  <ellipse cx="60" cy="65" rx="22" ry="25" fill="#d4a888"/>
  <!-- Hair - black straight -->
  <path d="M38 58 Q38 38 60 36 Q82 38 82 58 Q80 50 60 48 Q40 50 38 58Z" fill="#111"/>
  <!-- Eyes - slightly narrower -->
  <ellipse cx="51" cy="61" rx="4" ry="2.5" fill="#111"/>
  <ellipse cx="69" cy="61" rx="4" ry="2.5" fill="#111"/>
  <!-- Eyebrows -->
  <path d="M46 55 Q51 53 56 55" stroke="#111" stroke-width="2.5" fill="none" stroke-linecap="round"/>
  <path d="M64 55 Q69 53 74 55" stroke="#111" stroke-width="2.5" fill="none" stroke-linecap="round"/>
  <!-- Nose -->
  <path d="M59 65 Q57 69 60 71 Q63 69 61 65" stroke="#b8907a" stroke-width="1.5" fill="none"/>
  <!-- Mouth -->
  <path d="M54 76 Q60 80 66 76" stroke="#b07060" stroke-width="2" fill="none" stroke-linecap="round"/>
  <circle cx="60" cy="60" r="58" fill="none" stroke="#c9a84c" stroke-width="1.5" opacity="0.5"/>
</svg>
