<svg xmlns="http://www.w3.org/2000/svg" width="120" height="120" viewBox="0 0 120 120">
  <defs>
    <radialGradient id="bg1" cx="50%" cy="40%" r="60%">
      <stop offset="0%" stop-color="#2a1f0e"/>
      <stop offset="100%" stop-color="#0d0d0d"/>
    </radialGradient>
    <clipPath id="circle1"><circle cx="60" cy="60" r="60"/></clipPath>
  </defs>
  <circle cx="60" cy="60" r="60" fill="url(#bg1)"/>
  <!-- Body -->
  <ellipse cx="60" cy="105" rx="35" ry="22" fill="#1a1209"/>
  <!-- Shirt collar -->
  <path d="M45 92 Q60 100 75 92 L78 108 Q60 115 42 108 Z" fill="#c9a84c" opacity="0.8"/>
  <!-- Suit -->
  <path d="M38 95 Q60 103 82 95 L88 120 H32 Z" fill="#1e1e2e"/>
  <!-- Neck -->
  <rect x="54" y="80" width="12" height="15" rx="6" fill="#c8a97e"/>
  <!-- Head -->
  <ellipse cx="60" cy="65" rx="22" ry="26" fill="#c8a97e"/>
  <!-- Hair -->
  <path d="M38 58 Q38 38 60 38 Q82 38 82 58 Q80 52 60 50 Q40 52 38 58Z" fill="#4a2c0a"/>
  <!-- Eyes -->
  <ellipse cx="51" cy="61" rx="3.5" ry="3" fill="#2d1a00"/>
  <ellipse cx="69" cy="61" rx="3.5" ry="3" fill="#2d1a00"/>
  <!-- Eyebrows -->
  <path d="M46 55 Q51 53 56 55" stroke="#4a2c0a" stroke-width="2" fill="none" stroke-linecap="round"/>
  <path d="M64 55 Q69 53 74 55" stroke="#4a2c0a" stroke-width="2" fill="none" stroke-linecap="round"/>
  <!-- Nose -->
  <path d="M59 64 Q57 70 59 72 Q61 70 63 72" stroke="#b08060" stroke-width="1.5" fill="none" stroke-linecap="round"/>
  <!-- Mouth -->
  <path d="M53 77 Q60 82 67 77" stroke="#a07050" stroke-width="2" fill="none" stroke-linecap="round"/>
  <!-- Gold ring on border -->
  <circle cx="60" cy="60" r="58" fill="none" stroke="#c9a84c" stroke-width="1.5" opacity="0.5"/>
</svg>
