<?xml version="1.0" encoding="UTF-8"?>
<svg version="1.1" xmlns="http://www.w3.org/2000/svg" width="1280" height="896">
<path d="M0 0 C422.4 0 844.8 0 1280 0 C1280 295.68 1280 591.36 1280 896 C857.6 896 435.2 896 0 896 C0 600.32 0 304.64 0 0 Z " fill="#FEFEFE" transform="translate(0,0)"/>
<path d="M0 0 C0.845625 0.309375 1.69125 0.61875 2.5625 0.9375 C6.0497854 2.01538821 9.38177535 2.56581304 13 3 C13 3.66 13 4.32 13 5 C9.37 5.99 5.74 6.98 2 8 C2.50712033 11.71888239 3.11608215 14.73454239 5 18 C4.34 18.33 3.68 18.66 3 19 C2.52998967 22.27555608 2.52998967 22.27555608 2.375 26.0625 C2.30023437 27.35285156 2.22546875 28.64320313 2.1484375 29.97265625 C2.09945312 30.97167969 2.05046875 31.97070312 2 33 C5.3 32.01 8.6 31.02 12 30 C11.01 28.68 10.02 27.36 9 26 C9.33 25.34 9.66 24.68 10 24 C10.66 24.66 11.32 25.32 12 26 C13.90776786 26.05648025 13.90776786 26.05648025 16.125 25.6875 C20.95603478 25.09072512 25.767872 24.72432132 30.625 24.4375 C31.3483252 24.39391357 32.07165039 24.35032715 32.81689453 24.30541992 C34.54449929 24.20197922 36.27223627 24.10075049 38 24 C37.67 24.99 37.34 25.98 37 27 C36.34 26.67 35.68 26.34 35 26 C27.29319499 27.30669012 19.76252386 29.94148868 12.34521484 32.37353516 C9.43871509 33.31313327 7.07663865 34 4 34 C4 34.66 4 35.32 4 36 C4.680625 36.2475 5.36125 36.495 6.0625 36.75 C9 38 9 38 12.375 40.125 C15.98276887 42.2360962 18.8052683 42.4840075 23 42 C23.99 41.34 24.98 40.68 26 40 C26 40.66 26 41.32 26 42 C133.91 42.33 241.82 42.66 353 43 C353 43.66 353 44.32 353 45 C335.18 45 317.36 45 299 45 C299 45.66 299 46.32 299 47 C257.09 47 215.18 47 172 47 C172 47.33 172 47.66 172 48 C132.73 48.33 93.46 48.66 53 49 C53 49.33 53 49.66 53 50 C38.645 50.495 38.645 50.495 24 51 C30.39083756 51.83929407 30.39083756 51.83929407 36.70131683 52.1386652 C37.96878164 52.14687687 37.96878164 52.14687687 39.26185179 52.15525442 C40.61596623 52.15672158 40.61596623 52.15672158 41.99743652 52.15821838 C43.46551781 52.16562535 43.46551781 52.16562535 44.96325731 52.17318195 C48.22745637 52.1884829 51.49163588 52.19689743 54.75585938 52.20532227 C57.10183889 52.21490661 59.4478167 52.22491702 61.79379272 52.23532104 C68.15260938 52.26231583 74.51143342 52.28335475 80.8702755 52.30332303 C86.84542756 52.32299705 92.8205609 52.34713331 98.79569632 52.37124526 C110.62648028 52.41884213 122.4572759 52.46212759 134.28808594 52.50268555 C145.77702745 52.54208079 157.26595862 52.5835166 168.75488281 52.62768555 C169.46368597 52.63040982 170.17248913 52.63313409 170.90277117 52.63594092 C174.45881519 52.64962106 178.01485904 52.6633412 181.57090282 52.67708123 C211.04724666 52.79092175 240.52361391 52.89768631 270 53 C270 53.33 270 53.66 270 54 C268.92878906 54.04898438 267.85757812 54.09796875 266.75390625 54.1484375 C265.35674361 54.22345294 263.9596095 54.2990013 262.5625 54.375 C261.85544922 54.4059375 261.14839844 54.436875 260.41992188 54.46875 C258.60760812 54.57280629 256.80182012 54.77919892 255 55 C254.67 55.66 254.34 56.32 254 57 C270.5 57 287 57 304 57 C304 57.66 304 58.32 304 59 C-46.13 59 -396.26 59 -757 59 C-757.33 57.68 -757.66 56.36 -758 55 C-794.96 54.67 -831.92 54.34 -870 54 C-870 53.34 -870 52.68 -870 52 C-806.97 52 -743.94 52 -679 52 C-678.67 51.01 -678.34 50.02 -678 49 C-678.66080566 49.03029297 -679.32161133 49.06058594 -680.00244141 49.09179688 C-693.18447669 49.6791712 -706.36187698 50.11683256 -719.55706787 50.17724609 C-721.54606244 50.18741595 -723.5350019 50.20695028 -725.52392578 50.2265625 C-726.73419434 50.22785156 -727.94446289 50.22914063 -729.19140625 50.23046875 C-730.26592041 50.23457764 -731.34043457 50.23868652 -732.44750977 50.24291992 C-735 50 -735 50 -737 48 C-739.64289639 47.68452717 -739.64289639 47.68452717 -742.78323364 47.7215271 C-744.01444946 47.71036362 -745.24566528 47.69920013 -746.51419067 47.68769836 C-747.88592499 47.68533318 -749.25765964 47.68315757 -750.62939453 47.68115234 C-752.06810065 47.67185823 -753.50680136 47.66169034 -754.94549561 47.65071106 C-758.858464 47.62333852 -762.77139625 47.60824028 -766.68443537 47.59528303 C-770.77110105 47.5796841 -774.85769257 47.55288364 -778.94430542 47.5272522 C-786.68614145 47.48040688 -794.42799134 47.4436907 -802.16989696 47.41057932 C-810.98239697 47.37239849 -819.79482261 47.32297781 -828.60725999 47.27259517 C-846.73811894 47.1691898 -864.86902325 47.07995747 -883 47 C-883 46.34 -883 45.68 -883 45 C-894.55 45 -906.1 45 -918 45 C-918 44.34 -918 43.68 -918 43 C-622.65 42.67 -327.3 42.34 -23 42 C-26.63 37.71 -30.26 33.42 -34 29 C-34.99 27.35 -35.98 25.7 -37 24 C-27.65586912 24.5573276 -18.32480419 25.16995114 -9 26 C-9.66 27.32 -10.32 28.64 -11 30 C-7.7 30.99 -4.4 31.98 -1 33 C-1.0721875 31.87980469 -1.144375 30.75960937 -1.21875 29.60546875 C-1.31254956 28.13281566 -1.40629683 26.66015923 -1.5 25.1875 C-1.54769531 24.44951172 -1.59539063 23.71152344 -1.64453125 22.95117188 C-2.18778238 14.37556476 -2.18778238 14.37556476 -1 12 C-0.77141886 9.9625237 -0.58975722 7.91959697 -0.4375 5.875 C-0.35371094 4.77929688 -0.26992188 3.68359375 -0.18359375 2.5546875 C-0.12300781 1.71164062 -0.06242188 0.86859375 0 0 Z " fill="#E7F0F3" transform="translate(922,629)"/>
<path d="M0 0 C0.845625 0.309375 1.69125 0.61875 2.5625 0.9375 C6.0497854 2.01538821 9.38177535 2.56581304 13 3 C13 3.66 13 4.32 13 5 C9.37 5.99 5.74 6.98 2 8 C2.50712033 11.71888239 3.11608215 14.73454239 5 18 C4.34 18.33 3.68 18.66 3 19 C2.52998967 22.27555608 2.52998967 22.27555608 2.375 26.0625 C2.30023437 27.35285156 2.22546875 28.64320313 2.1484375 29.97265625 C2.09945312 30.97167969 2.05046875 31.97070312 2 33 C5.3 32.01 8.6 31.02 12 30 C11.01 28.68 10.02 27.36 9 26 C9.33 25.34 9.66 24.68 10 24 C10.66 24.66 11.32 25.32 12 26 C13.90776786 26.05648025 13.90776786 26.05648025 16.125 25.6875 C20.95603478 25.09072512 25.767872 24.72432132 30.625 24.4375 C31.3483252 24.39391357 32.07165039 24.35032715 32.81689453 24.30541992 C34.54449929 24.20197922 36.27223627 24.10075049 38 24 C37.67 24.99 37.34 25.98 37 27 C36.34 26.67 35.68 26.34 35 26 C27.29319499 27.30669012 19.76252386 29.94148868 12.34521484 32.37353516 C9.43871509 33.31313327 7.07663865 34 4 34 C4 34.66 4 35.32 4 36 C4.680625 36.2475 5.36125 36.495 6.0625 36.75 C9 38 9 38 12.375 40.125 C15.98276887 42.2360962 18.8052683 42.4840075 23 42 C23.99 41.34 24.98 40.68 26 40 C26 40.66 26 41.32 26 42 C133.91 42.33 241.82 42.66 353 43 C353 43.66 353 44.32 353 45 C335.18 45 317.36 45 299 45 C299 45.66 299 46.32 299 47 C257.09 47 215.18 47 172 47 C172 47.33 172 47.66 172 48 C132.73 48.33 93.46 48.66 53 49 C53 49.33 53 49.66 53 50 C22.32270273 50.91968686 -8.33094686 51.14214015 -39.02071261 51.11606562 C-44.86869999 51.11212198 -50.71668563 51.1130323 -56.564674 51.11374746 C-68.48821349 51.11504569 -80.41174734 51.11178076 -92.33528519 51.10573006 C-104.10686903 51.09977205 -115.87845052 51.09595594 -127.65003586 51.09487724 C-128.38745797 51.0948085 -129.12488009 51.09473976 -129.88464833 51.09466894 C-133.63105605 51.09433051 -137.37746377 51.09402917 -141.12387149 51.09374207 C-167.52187295 51.09165281 -193.91987135 51.08494696 -220.31787109 51.07543945 C-245.93115218 51.06622535 -271.54443243 51.05915637 -297.15771484 51.05493164 C-297.9500166 51.05480011 -298.74231836 51.05466859 -299.55862926 51.05453308 C-307.51670078 51.05321433 -315.47477231 51.05193855 -323.43284385 51.05069422 C-339.63812112 51.04815937 -355.84339834 51.04533812 -372.04867554 51.04234314 C-372.79344044 51.04220585 -373.53820535 51.04206856 -374.30553889 51.04192711 C-423.87036056 51.03275756 -473.43518043 51.01689508 -523 51 C-523 50.67 -523 50.34 -523 50 C-409.48 49.67 -295.96 49.34 -179 49 C-231.47 49 -283.94 49 -338 49 C-344.93 48.67 -351.86 48.34 -359 48 C-359 47.67 -359 47.34 -359 47 C-364.28 47 -369.56 47 -375 47 C-375 47.33 -375 47.66 -375 48 C-468.72 48 -562.44 48 -659 48 C-659 48.33 -659 48.66 -659 49 C-703.51871896 50.09077534 -703.51871896 50.09077534 -722.75 50.1875 C-723.98379395 50.20039062 -725.21758789 50.21328125 -726.48876953 50.2265625 C-728.15721924 50.22849609 -728.15721924 50.22849609 -729.859375 50.23046875 C-730.81295898 50.23457764 -731.76654297 50.23868652 -732.74902344 50.24291992 C-735 50 -735 50 -737 48 C-739.64289639 47.68452717 -739.64289639 47.68452717 -742.78323364 47.7215271 C-744.01444946 47.71036362 -745.24566528 47.69920013 -746.51419067 47.68769836 C-747.88592499 47.68533318 -749.25765964 47.68315757 -750.62939453 47.68115234 C-752.06810065 47.67185823 -753.50680136 47.66169034 -754.94549561 47.65071106 C-758.858464 47.62333852 -762.77139625 47.60824028 -766.68443537 47.59528303 C-770.77110105 47.5796841 -774.85769257 47.55288364 -778.94430542 47.5272522 C-786.68614145 47.48040688 -794.42799134 47.4436907 -802.16989696 47.41057932 C-810.98239697 47.37239849 -819.79482261 47.32297781 -828.60725999 47.27259517 C-846.73811894 47.1691898 -864.86902325 47.07995747 -883 47 C-883 46.34 -883 45.68 -883 45 C-894.55 45 -906.1 45 -918 45 C-918 44.34 -918 43.68 -918 43 C-622.65 42.67 -327.3 42.34 -23 42 C-26.63 37.71 -30.26 33.42 -34 29 C-34.99 27.35 -35.98 25.7 -37 24 C-27.65586912 24.5573276 -18.32480419 25.16995114 -9 26 C-9.66 27.32 -10.32 28.64 -11 30 C-7.7 30.99 -4.4 31.98 -1 33 C-1.0721875 31.87980469 -1.144375 30.75960937 -1.21875 29.60546875 C-1.31254956 28.13281566 -1.40629683 26.66015923 -1.5 25.1875 C-1.54769531 24.44951172 -1.59539063 23.71152344 -1.64453125 22.95117188 C-2.18778238 14.37556476 -2.18778238 14.37556476 -1 12 C-0.77141886 9.9625237 -0.58975722 7.91959697 -0.4375 5.875 C-0.35371094 4.77929688 -0.26992188 3.68359375 -0.18359375 2.5546875 C-0.12300781 1.71164062 -0.06242188 0.86859375 0 0 Z " fill="#BCCFD6" transform="translate(922,629)"/>
<path d="M0 0 C102.96 0 205.92 0 312 0 C312 0.33 312 0.66 312 1 C305.73 1.33 299.46 1.66 293 2 C385.73 2 478.46 2 574 2 C574 2.33 574 2.66 574 3 C525.16 3.33 476.32 3.66 426 4 C484.08 4 542.16 4 602 4 C602 4.33 602 4.66 602 5 C608.03886431 5.87691124 613.89993419 6.15161184 619.99743652 6.15821838 C621.46551781 6.16562535 621.46551781 6.16562535 622.96325731 6.17318195 C626.22745637 6.1884829 629.49163588 6.19689743 632.75585938 6.20532227 C635.10183889 6.21490661 637.4478167 6.22491702 639.79379272 6.23532104 C646.15260938 6.26231583 652.51143342 6.28335475 658.8702755 6.30332303 C664.84542756 6.32299705 670.8205609 6.34713331 676.79569632 6.37124526 C688.62648028 6.41884213 700.4572759 6.46212759 712.28808594 6.50268555 C723.77702745 6.54208079 735.26595862 6.5835166 746.75488281 6.62768555 C747.46368597 6.63040982 748.17248913 6.63313409 748.90277117 6.63594092 C752.45881519 6.64962106 756.01485904 6.6633412 759.57090282 6.67708123 C789.04724666 6.79092175 818.52361391 6.89768631 848 7 C848 7.33 848 7.66 848 8 C471.8 8 95.6 8 -292 8 C-292 7.34 -292 6.68 -292 6 C-228.97 6 -165.94 6 -101 6 C-100.67 5.01 -100.34 4.02 -100 3 C-124.75 2.505 -124.75 2.505 -150 2 C-150 1.67 -150 1.34 -150 1 C-100.5 1 -51 1 0 1 C0 0.67 0 0.34 0 0 Z " fill="#DDE5E7" transform="translate(344,675)"/>
<path d="M0 0 C0.845625 0.309375 1.69125 0.61875 2.5625 0.9375 C6.0497854 2.01538821 9.38177535 2.56581304 13 3 C13 3.66 13 4.32 13 5 C9.37 5.99 5.74 6.98 2 8 C2.50712033 11.71888239 3.11608215 14.73454239 5 18 C4.34 18.33 3.68 18.66 3 19 C2.52998967 22.27555608 2.52998967 22.27555608 2.375 26.0625 C2.30023437 27.35285156 2.22546875 28.64320313 2.1484375 29.97265625 C2.09945312 30.97167969 2.05046875 31.97070312 2 33 C5.3 32.01 8.6 31.02 12 30 C11.01 28.68 10.02 27.36 9 26 C9.33 25.34 9.66 24.68 10 24 C10.66 24.66 11.32 25.32 12 26 C13.90776786 26.05648025 13.90776786 26.05648025 16.125 25.6875 C20.95603478 25.09072512 25.767872 24.72432132 30.625 24.4375 C31.3483252 24.39391357 32.07165039 24.35032715 32.81689453 24.30541992 C34.54449929 24.20197922 36.27223627 24.10075049 38 24 C37.67 24.99 37.34 25.98 37 27 C36.34 26.67 35.68 26.34 35 26 C27.29319499 27.30669012 19.76252386 29.94148868 12.34521484 32.37353516 C9.43871509 33.31313327 7.07663865 34 4 34 C4 34.66 4 35.32 4 36 C4.680625 36.2475 5.36125 36.495 6.0625 36.75 C9 38 9 38 12.375 40.125 C15.98276887 42.2360962 18.8052683 42.4840075 23 42 C23.99 41.34 24.98 40.68 26 40 C26 40.66 26 41.32 26 42 C133.91 42.33 241.82 42.66 353 43 C353 43.33 353 43.66 353 44 C352.31187513 44.00173625 351.62375025 44.0034725 350.91477311 44.00526136 C310.12218332 44.10831107 269.32960971 44.21642813 228.53705091 44.33111694 C223.63798196 44.34488636 218.73891289 44.35861348 213.83984375 44.37231445 C212.37688186 44.37640691 212.37688186 44.37640691 210.88436519 44.38058204 C195.09663643 44.42464543 179.30890062 44.4652831 163.52115954 44.50465261 C147.31898268 44.54513192 131.11681887 44.58929765 114.91466129 44.63687855 C104.91876474 44.66611754 94.9228691 44.69248829 84.92695551 44.71517897 C78.07045645 44.73101877 71.21397335 44.75044246 64.35749204 44.77266841 C60.40293375 44.78538217 56.44838757 44.79653106 52.49381447 44.80341911 C48.86890773 44.80976793 45.24404305 44.82064639 41.61915956 44.8350333 C39.69592178 44.84151473 37.77266973 44.84323245 35.84942162 44.84474558 C29.88138457 44.87293559 24.02752878 45.07199819 18.09843433 45.77417618 C14.79594501 46.12957484 11.51042526 46.1298417 8.19140625 46.1328125 C7.49917465 46.13376923 6.80694305 46.13472595 6.09373474 46.13571167 C4.64606636 46.13638476 3.1983948 46.13459216 1.75073242 46.13037109 C-0.42992125 46.1250186 -2.61036824 46.13034187 -4.79101562 46.13671875 C-6.21354211 46.13605765 -7.63606847 46.13477584 -9.05859375 46.1328125 C-10.31986084 46.13168457 -11.58112793 46.13055664 -12.88061523 46.12939453 C-15.8832932 46.07876096 -18.81895862 45.82235413 -21.80414993 45.50057942 C-28.95112059 44.83973021 -36.08143641 44.85566388 -43.25298595 44.8613348 C-44.78363806 44.85888333 -46.31428953 44.85599826 -47.8449401 44.85272202 C-52.0435711 44.84498533 -56.24218522 44.84338172 -60.44082247 44.8427946 C-65.01133273 44.84106046 -69.58183419 44.83357225 -74.15233928 44.82681805 C-82.16001754 44.81577487 -90.16769266 44.80839468 -98.17537689 44.80341911 C-110.08248694 44.79600402 -121.98958605 44.78291877 -133.89668965 44.76867336 C-153.92692405 44.74487013 -173.95716039 44.72566287 -193.98740196 44.70907402 C-213.82014927 44.69263372 -233.65289295 44.67415126 -253.48563576 44.65294075 C-255.3352745 44.65096434 -255.3352745 44.65096434 -257.22227969 44.648948 C-263.48452115 44.64224593 -269.74676257 44.63550736 -276.00900397 44.62875474 C-320.36561822 44.58099036 -364.72223601 44.53780494 -409.07885742 44.49731445 C-419.82773847 44.48750042 -430.57661951 44.47767028 -441.32550049 44.46777344 C-441.99215877 44.46715964 -442.65881705 44.46654584 -443.3456771 44.46591344 C-474.34442686 44.43735056 -505.34317386 44.40619903 -536.34192043 44.37438093 C-538.35470159 44.37231499 -540.36748276 44.37025017 -542.38026392 44.36818558 C-555.71921408 44.35450147 -569.05816419 44.34077267 -582.39711427 44.32701423 C-609.57014726 44.29898761 -636.74318054 44.2712425 -663.91621399 44.2436676 C-665.79027642 44.2417653 -665.79027642 44.2417653 -667.70219869 44.23982458 C-751.13479456 44.15516719 -834.56739683 44.07707207 -918 44 C-918 43.67 -918 43.34 -918 43 C-622.65 42.67 -327.3 42.34 -23 42 C-26.63 37.71 -30.26 33.42 -34 29 C-34.99 27.35 -35.98 25.7 -37 24 C-27.65586912 24.5573276 -18.32480419 25.16995114 -9 26 C-9.66 27.32 -10.32 28.64 -11 30 C-7.7 30.99 -4.4 31.98 -1 33 C-1.0721875 31.87980469 -1.144375 30.75960937 -1.21875 29.60546875 C-1.31254956 28.13281566 -1.40629683 26.66015923 -1.5 25.1875 C-1.54769531 24.44951172 -1.59539063 23.71152344 -1.64453125 22.95117188 C-2.18778238 14.37556476 -2.18778238 14.37556476 -1 12 C-0.77141886 9.9625237 -0.58975722 7.91959697 -0.4375 5.875 C-0.35371094 4.77929688 -0.26992188 3.68359375 -0.18359375 2.5546875 C-0.12300781 1.71164062 -0.06242188 0.86859375 0 0 Z " fill="#A1B4BD" transform="translate(922,629)"/>
<path d="M0 0 C257.07 0 514.14 0 779 0 C779 0.33 779 0.66 779 1 C562.19 1.495 562.19 1.495 341 2 C407.66 2.33 474.32 2.66 543 3 C543 3.33 543 3.66 543 4 C449.28 4 355.56 4 259 4 C259 4.33 259 4.66 259 5 C214.48128104 6.09077534 214.48128104 6.09077534 195.25 6.1875 C193.39930908 6.20683594 193.39930908 6.20683594 191.51123047 6.2265625 C189.84278076 6.22849609 189.84278076 6.22849609 188.140625 6.23046875 C187.18704102 6.23457764 186.23345703 6.23868652 185.25097656 6.24291992 C183 6 183 6 181 4 C178.35710361 3.68452717 178.35710361 3.68452717 175.21676636 3.7215271 C173.98555054 3.71036362 172.75433472 3.69920013 171.48580933 3.68769836 C170.11407501 3.68533318 168.74234036 3.68315757 167.37060547 3.68115234 C165.93189935 3.67185823 164.49319864 3.66169034 163.05450439 3.65071106 C159.141536 3.62333852 155.22860375 3.60824028 151.31556463 3.59528303 C147.22889895 3.5796841 143.14230743 3.55288364 139.05569458 3.5272522 C131.31385855 3.48040688 123.57200866 3.4436907 115.83010304 3.41057932 C107.01760303 3.37239849 98.20517739 3.32297781 89.39274001 3.27259517 C71.26188106 3.1691898 53.13097675 3.07995747 35 3 C35 2.34 35 1.68 35 1 C23.45 1 11.9 1 0 1 C0 0.67 0 0.34 0 0 Z " fill="#C6DBE6" transform="translate(4,673)"/>
<path d="M0 0 C102.96 0 205.92 0 312 0 C312 0.33 312 0.66 312 1 C305.73 1.33 299.46 1.66 293 2 C385.73 2 478.46 2 574 2 C574 2.33 574 2.66 574 3 C479.73994731 3.75116989 385.48040102 4.2006942 244.99500956 4.56576881 C228.27017739 4.60698336 211.54536574 4.65346771 194.82055664 4.703125 C1.13560521 5.27656307 1.13560521 5.27656307 -80 4 C-80 3.67 -80 3.34 -80 3 C-22.58 2.67 34.84 2.34 94 2 C47.47 1.505 47.47 1.505 0 1 C0 0.67 0 0.34 0 0 Z " fill="#DEEDF2" transform="translate(344,675)"/>
<path d="M0 0 C1.2684375 0.4640625 1.2684375 0.4640625 2.5625 0.9375 C6.0497854 2.01538821 9.38177535 2.56581304 13 3 C13 3.66 13 4.32 13 5 C7.555 6.485 7.555 6.485 2 8 C2.50712033 11.71888239 3.11608215 14.73454239 5 18 C4.01 18.495 4.01 18.495 3 19 C2.52998967 22.27555608 2.52998967 22.27555608 2.375 26.0625 C2.30023437 27.35285156 2.22546875 28.64320313 2.1484375 29.97265625 C2.09945312 30.97167969 2.05046875 31.97070312 2 33 C5.3 32.01 8.6 31.02 12 30 C11.01 28.68 10.02 27.36 9 26 C9.33 25.34 9.66 24.68 10 24 C10.66 24.66 11.32 25.32 12 26 C13.90776786 26.05648025 13.90776786 26.05648025 16.125 25.6875 C20.95603478 25.09072512 25.767872 24.72432132 30.625 24.4375 C31.70998779 24.37212036 31.70998779 24.37212036 32.81689453 24.30541992 C34.54449929 24.20197922 36.27223627 24.10075049 38 24 C37.505 25.485 37.505 25.485 37 27 C36.34 26.67 35.68 26.34 35 26 C27.29319499 27.30669012 19.76252386 29.94148868 12.34521484 32.37353516 C9.43871509 33.31313327 7.07663865 34 4 34 C4 34.66 4 35.32 4 36 C4.99 36.33 5.98 36.66 7 37 C8.5 38.375 8.5 38.375 10 40 C10.556875 40.556875 11.11375 41.11375 11.6875 41.6875 C12.120625 42.120625 12.55375 42.55375 13 43 C7.14519435 43.8450235 1.47413722 44.15404981 -4.4375 44.125 C-5.25154297 44.12886719 -6.06558594 44.13273438 -6.90429688 44.13671875 C-12.87323778 44.12676222 -12.87323778 44.12676222 -14 43 C-14.90878906 43.06058594 -15.81757812 43.12117187 -16.75390625 43.18359375 C-22.66774611 42.84911665 -26.08283483 38.1022281 -30 34 C-37 25.8312611 -37 25.8312611 -37 24 C-27.65586912 24.5573276 -18.32480419 25.16995114 -9 26 C-9.66 27.32 -10.32 28.64 -11 30 C-7.7 30.99 -4.4 31.98 -1 33 C-1.10828125 31.31970703 -1.10828125 31.31970703 -1.21875 29.60546875 C-1.31254956 28.13281566 -1.40629683 26.66015923 -1.5 25.1875 C-1.54769531 24.44951172 -1.59539063 23.71152344 -1.64453125 22.95117188 C-2.18778238 14.37556476 -2.18778238 14.37556476 -1 12 C-0.77141886 9.9625237 -0.58975722 7.91959697 -0.4375 5.875 C-0.35371094 4.77929688 -0.26992188 3.68359375 -0.18359375 2.5546875 C-0.09271484 1.29011719 -0.09271484 1.29011719 0 0 Z " fill="#EDF5F5" transform="translate(922,629)"/>
<path d="M0 0 C143.88 0 287.76 0 436 0 C436 0.33 436 0.66 436 1 C411.1447274 1.82079593 386.30449531 2.09285337 361.4375 2.0625 C360.37806812 2.06121597 360.37806812 2.06121597 359.29723358 2.05990601 C350.53146551 2.04849449 341.76573045 2.02838764 333 2 C333.99 2.66 334.98 3.32 336 4 C323.71545982 4.02334367 311.43092506 4.04102591 299.14636707 4.05181217 C293.43993652 4.05699341 287.73352133 4.06400271 282.02709961 4.07543945 C276.50275716 4.08643986 270.97842933 4.0923125 265.45407677 4.09487724 C263.36416075 4.09670102 261.27424537 4.10026086 259.18433571 4.10573006 C245.42432038 4.14025164 231.73830917 3.78345833 218 3 C218 2.67 218 2.34 218 2 C242.42 2 266.84 2 292 2 C147.46 1.505 147.46 1.505 0 1 C0 0.67 0 0.34 0 0 Z " fill="#B3CAD5" transform="translate(345,674)"/>
<path d="M0 0 C100.98 0 201.96 0 306 0 C306 0.33 306 0.66 306 1 C288.18 1 270.36 1 252 1 C252 1.66 252 2.32 252 3 C225.14030697 3.15302656 198.29040055 2.9041098 171.4338913 2.5293045 C134.88798991 2.0211146 98.34094797 1.72802788 61.79270124 1.4542098 C59.55650403 1.43745508 57.32030712 1.42066012 55.08411026 1.40385818 C36.72276366 1.265991 18.36139516 1.1312551 0 1 C0 0.67 0 0.34 0 0 Z " fill="#CFE5F1" transform="translate(969,673)"/>
<path d="M0 0 C1.2684375 0.4640625 1.2684375 0.4640625 2.5625 0.9375 C6.0497854 2.01538821 9.38177535 2.56581304 13 3 C13 3.66 13 4.32 13 5 C7.555 6.485 7.555 6.485 2 8 C2.50712033 11.71888239 3.11608215 14.73454239 5 18 C4.01 18.495 4.01 18.495 3 19 C2.52998967 22.27555608 2.52998967 22.27555608 2.375 26.0625 C2.30023437 27.35285156 2.22546875 28.64320313 2.1484375 29.97265625 C2.09945312 30.97167969 2.05046875 31.97070312 2 33 C5.3 32.01 8.6 31.02 12 30 C11.01 28.68 10.02 27.36 9 26 C9.33 25.34 9.66 24.68 10 24 C10.66 24.66 11.32 25.32 12 26 C13.90776786 26.05648025 13.90776786 26.05648025 16.125 25.6875 C20.95603478 25.09072512 25.767872 24.72432132 30.625 24.4375 C31.70998779 24.37212036 31.70998779 24.37212036 32.81689453 24.30541992 C34.54449929 24.20197922 36.27223627 24.10075049 38 24 C37.505 25.485 37.505 25.485 37 27 C36.34 26.67 35.68 26.34 35 26 C27.29319499 27.30669012 19.76252386 29.94148868 12.34521484 32.37353516 C9.43871509 33.31313327 7.07663865 34 4 34 C4 34.66 4 35.32 4 36 C4.99 36.33 5.98 36.66 7 37 C6.01 37.495 6.01 37.495 5 38 C3.31923769 37.36971413 1.65204456 36.70211894 0 36 C-0.66 36 -1.32 36 -2 36 C-2 35.34 -2 34.68 -2 34 C-3.07636719 33.90847656 -4.15273438 33.81695313 -5.26171875 33.72265625 C-10.98205961 33.00808624 -16.33943759 31.19012937 -21.8125 29.4375 C-23.8594816 28.78659297 -25.9076118 28.13928387 -27.95703125 27.49609375 C-28.85397705 27.20919678 -29.75092285 26.9222998 -30.67504883 26.62670898 C-33.08144532 25.86986601 -33.08144532 25.86986601 -36 26 C-36.33 25.34 -36.66 24.68 -37 24 C-27.65586912 24.5573276 -18.32480419 25.16995114 -9 26 C-9.66 27.32 -10.32 28.64 -11 30 C-7.7 30.99 -4.4 31.98 -1 33 C-1.10828125 31.31970703 -1.10828125 31.31970703 -1.21875 29.60546875 C-1.31254956 28.13281566 -1.40629683 26.66015923 -1.5 25.1875 C-1.54769531 24.44951172 -1.59539063 23.71152344 -1.64453125 22.95117188 C-2.18778238 14.37556476 -2.18778238 14.37556476 -1 12 C-0.77141886 9.9625237 -0.58975722 7.91959697 -0.4375 5.875 C-0.35371094 4.77929688 -0.26992188 3.68359375 -0.18359375 2.5546875 C-0.09271484 1.29011719 -0.09271484 1.29011719 0 0 Z " fill="#6F8A93" transform="translate(922,629)"/>
<path d="M0 0 C0.76171875 1.65234375 0.76171875 1.65234375 1 4 C-0.73046875 6.69140625 -0.73046875 6.69140625 -3.1875 9.5625 C-3.98542969 10.51253906 -4.78335938 11.46257813 -5.60546875 12.44140625 C-8.62248165 15.66513129 -10.64379578 17.71745745 -15 18.625 C-20.86616723 18.41961997 -26.39675048 14.34094629 -31 11 C-31 10.34 -31 9.68 -31 9 C-20.73519909 5.68219301 -10.52662823 2.39528068 0 0 Z " fill="#F0F7F7" transform="translate(957,654)"/>
<path d="M0 0 C2.28070036 0.00187079 4.56140114 0.00329156 6.84210205 0.00428772 C12.77334756 0.00806092 18.70456761 0.01784521 24.63580322 0.0289917 C30.71683406 0.03931915 36.79786912 0.04380934 42.87890625 0.04882812 C54.75782353 0.05947349 66.63672213 0.07648541 78.515625 0.09765625 C78.515625 0.42765625 78.515625 0.75765625 78.515625 1.09765625 C77.40002197 1.1227124 76.28441895 1.14776855 75.13500977 1.17358398 C71.0106991 1.26749046 66.8865635 1.36775139 62.76245117 1.4699707 C60.9747323 1.51338325 59.18697026 1.55505354 57.39916992 1.5949707 C54.83499109 1.65252085 52.27103088 1.71625828 49.70703125 1.78125 C48.9028627 1.79796249 48.09869415 1.81467499 47.27015686 1.83189392 C43.58892502 1.58986321 43.58892502 1.58986321 40.515625 3.09765625 C38.70451095 3.19681866 36.88950975 3.22564951 35.07568359 3.22705078 C33.90870941 3.23020294 32.74173523 3.2333551 31.53939819 3.23660278 C30.26053741 3.23457855 28.98167664 3.23255432 27.6640625 3.23046875 C26.33053571 3.23114342 24.99700904 3.23211481 23.66348267 3.23336792 C20.8470952 3.23484839 18.03073928 3.23268664 15.21435547 3.22802734 C11.67684679 3.22244925 8.13941535 3.22561711 4.60190964 3.23147964 C-11.7829001 3.254347 -28.11987005 2.99869948 -44.484375 2.09765625 C-44.484375 1.76765625 -44.484375 1.43765625 -44.484375 1.09765625 C-29.64412582 0.18839232 -14.86540521 -0.0364295 0 0 Z " fill="#CADEE7" transform="translate(702.484375,674.90234375)"/>
<path d="M0 0 C-2.39763185 2.39763185 -3.33273498 2.34280586 -6.625 2.625 C-7.85089844 2.73714844 -7.85089844 2.73714844 -9.1015625 2.8515625 C-10.04128906 2.92503906 -10.04128906 2.92503906 -11 3 C-11 3.33 -11 3.66 -11 4 C-33.77 4 -56.54 4 -80 4 C-79.67 3.34 -79.34 2.68 -79 2 C-52.63958915 0.22723762 -26.41574858 -0.25652105 0 0 Z " fill="#C5D7E0" transform="translate(345,673)"/>
<path d="M0 0 C3.40312738 1.05875074 6.01353231 2.00902154 9 4 C14.33468429 4.38464895 14.33468429 4.38464895 19 2 C19 2.66 19 3.32 19 4 C42.76 4.33 66.52 4.66 91 5 C91 5.33 91 5.66 91 6 C90.12018463 6.01030746 89.24036926 6.02061493 88.33389282 6.03123474 C80.00761002 6.12956186 71.68139216 6.23212343 63.35521889 6.33933926 C59.07554115 6.39430189 54.79585635 6.44767641 50.51611328 6.49731445 C46.37931308 6.54535482 42.2425871 6.59770669 38.10587692 6.65294075 C36.53440597 6.6731862 34.96291482 6.69192636 33.39140701 6.70907402 C25.92294918 6.79146844 18.53179251 6.93245903 11.1031189 7.79081726 C5.93591227 8.30476369 0.71766804 7.94304172 -4.46191406 7.75805664 C-6.52390359 7.68667248 -8.58589881 7.63293251 -10.6484375 7.58007812 C-11.95039062 7.53689453 -13.25234375 7.49371094 -14.59375 7.44921875 C-16.36782227 7.39254028 -16.36782227 7.39254028 -18.17773438 7.3347168 C-21 7 -21 7 -23 5 C-21.68 4.67 -20.36 4.34 -19 4 C-19 4.33 -19 4.66 -19 5 C-16.31243045 5.02720824 -13.62514202 5.0469388 -10.9375 5.0625 C-10.18533203 5.07087891 -9.43316406 5.07925781 -8.65820312 5.08789062 C-3.99366882 5.10808341 0.39923173 4.77595959 5 4 C3.7625 3.2884375 3.7625 3.2884375 2.5 2.5625 C1.675 2.046875 0.85 1.53125 0 1 C0 0.67 0 0.34 0 0 Z " fill="#94ABB6" transform="translate(929,667)"/>
<path d="M0 0 C14.19 0 28.38 0 43 0 C43 0.99 43 1.98 43 3 C11.65 3 -19.7 3 -52 3 C-52 2.67 -52 2.34 -52 2 C-34.84 1.67 -17.68 1.34 0 1 C0 0.67 0 0.34 0 0 Z " fill="#B6CBD4" transform="translate(796,674)"/>
<path d="M0 0 C31.68 0 63.36 0 96 0 C96 0.33 96 0.66 96 1 C79.17 1 62.34 1 45 1 C45 1.66 45 2.32 45 3 C38.73 3 32.46 3 26 3 C26 2.67 26 2.34 26 2 C13.13 1.505 13.13 1.505 0 1 C0 0.67 0 0.34 0 0 Z " fill="#E7F4F8" transform="translate(821,679)"/>
<path d="M0 0 C25.74 0.33 51.48 0.66 78 1 C78 1.33 78 1.66 78 2 C62.66747341 2.37566988 47.3344644 2.71349566 32 3 C31.13209839 3.01651611 30.26419678 3.03303223 29.36999512 3.05004883 C24.32997728 3.1435538 19.29070164 3.20690083 14.25 3.25 C13.01620605 3.27126953 11.78241211 3.29253906 10.51123047 3.31445312 C8.84278076 3.3212207 8.84278076 3.3212207 7.140625 3.328125 C6.18704102 3.3374707 5.23345703 3.34681641 4.25097656 3.35644531 C3.5081543 3.23881836 2.76533203 3.12119141 2 3 C1.34 2.01 0.68 1.02 0 0 Z " fill="#D4DEE2" transform="translate(185,676)"/>
<path d="M0 0 C0 5.61 0 11.22 0 17 C-3.63 16.34 -7.26 15.68 -11 15 C-4 0 -4 0 0 0 Z " fill="#E6EEEF" transform="translate(921,645)"/>
<path d="M0 0 C0.845625 0.515625 1.69125 1.03125 2.5625 1.5625 C3.25085938 1.96726562 3.93921875 2.37203125 4.6484375 2.7890625 C6.6629738 3.99778428 8.64865934 5.19954151 10.5625 6.5625 C10.5625 6.8925 10.5625 7.2225 10.5625 7.5625 C2.6425 7.5625 -5.2775 7.5625 -13.4375 7.5625 C-4.98097826 -0.89402174 -4.98097826 -0.89402174 0 0 Z " fill="#EEFCFC" transform="translate(924.4375,664.4375)"/>
<path d="M0 0 C1.89453125 0.12890625 1.89453125 0.12890625 4 1 C5.44921875 3.21484375 5.44921875 3.21484375 6.6875 5.9375 C7.10386719 6.83339844 7.52023437 7.72929688 7.94921875 8.65234375 C8.29597656 9.42707031 8.64273438 10.20179688 9 11 C9.33 11.66 9.66 12.32 10 13 C6.12315913 14.19287411 3.08378077 15 -1 15 C-1.02685412 12.68756208 -1.04632841 10.3750373 -1.0625 8.0625 C-1.07410156 6.77472656 -1.08570313 5.48695313 -1.09765625 4.16015625 C-1 1 -1 1 0 0 Z " fill="#E9F0F1" transform="translate(925,647)"/>
<path d="M0 0 C-0.33 0.99 -0.66 1.98 -1 3 C-17.366088 3.12846223 -33.65621706 2.88319379 -50 2 C-50 1.67 -50 1.34 -50 1 C-33.32803694 -0.09838815 -16.69866964 -0.10875887 0 0 Z " fill="#D0E6EF" transform="translate(708,675)"/>
<path d="M0 0 C9.34413088 0.5573276 18.67519581 1.16995114 28 2 C27.34 3.32 26.68 4.64 26 6 C19.01671554 5.65203565 12.68960598 4.89676133 6.05859375 2.62109375 C3.87968708 1.85557624 3.87968708 1.85557624 1 2 C0.67 1.34 0.34 0.68 0 0 Z " fill="#8BA2AB" transform="translate(885,653)"/>
<path d="M0 0 C4.29 0 8.58 0 13 0 C13 0.33 13 0.66 13 1 C15.64 1.33 18.28 1.66 21 2 C21 2.33 21 2.66 21 3 C4.83 3 -11.34 3 -28 3 C-28 2.67 -28 2.34 -28 2 C-18.76 1.67 -9.52 1.34 0 1 C0 0.67 0 0.34 0 0 Z " fill="#E7F3F6" transform="translate(933,679)"/>
<path d="M0 0 C4.50802601 1.25805377 7.4912812 2.90407165 11 6 C6.69327058 8.15336471 0.92674995 7.18585478 -3.85839844 7.18530273 C-5.99173865 7.18749152 -8.12456366 7.20565919 -10.2578125 7.22460938 C-11.60937323 7.22754294 -12.96093642 7.22952798 -14.3125 7.23046875 C-15.54613281 7.23457764 -16.77976562 7.23868652 -18.05078125 7.24291992 C-21 7 -21 7 -23 5 C-21.68 4.67 -20.36 4.34 -19 4 C-19 4.33 -19 4.66 -19 5 C-16.31243045 5.02720824 -13.62514202 5.0469388 -10.9375 5.0625 C-10.18533203 5.07087891 -9.43316406 5.07925781 -8.65820312 5.08789062 C-3.99366882 5.10808341 0.39923173 4.77595959 5 4 C3.7625 3.2884375 3.7625 3.2884375 2.5 2.5625 C1.675 2.046875 0.85 1.53125 0 1 C0 0.67 0 0.34 0 0 Z " fill="#7497A4" transform="translate(929,667)"/>
<path d="M0 0 C-0.33 0.99 -0.66 1.98 -1 3 C-1.66 2.67 -2.32 2.34 -3 2 C-4.86956051 2.39082856 -6.72250846 2.86271628 -8.5625 3.375 C-13.74283544 4.7435084 -18.66628148 5.55552346 -24 6 C-24.33 5.34 -24.66 4.68 -25 4 C-23.35 4 -21.7 4 -20 4 C-20 3.34 -20 2.68 -20 2 C-17.79248152 1.66131223 -15.58394089 1.32928311 -13.375 1 C-12.14523437 0.814375 -10.91546875 0.62875 -9.6484375 0.4375 C-6.3833973 0.04597484 -3.28287549 -0.08080924 0 0 Z " fill="#7D97A2" transform="translate(960,653)"/>
<path d="M0 0 C-0.0625 1.75 -0.0625 1.75 -1 4 C-3.24164322 5.59501537 -5.53566643 6.74543018 -8 8 C-3.05 8.33 1.9 8.66 7 9 C7 9.33 7 9.66 7 10 C1.06 10 -4.88 10 -11 10 C-5.28571429 0 -5.28571429 0 0 0 Z " fill="#B0CAD0" transform="translate(920,663)"/>
<path d="M0 0 C2.03833424 1.2739589 4.03852126 2.61061923 6 4 C6 4.66 6 5.32 6 6 C5.01 6.495 5.01 6.495 4 7 C2.99740493 10.00778521 2.69685358 12.53820647 2.4375 15.6875 C2.35371094 16.68136719 2.26992188 17.67523437 2.18359375 18.69921875 C2.12300781 19.45847656 2.06242188 20.21773437 2 21 C1.67 21 1.34 21 1 21 C0.66440045 18.39610703 0.33143142 15.7919239 0 13.1875 C-0.09539063 12.44951172 -0.19078125 11.71152344 -0.2890625 10.95117188 C-1.33760153 2.67520307 -1.33760153 2.67520307 0 0 Z " fill="#8AA7B0" transform="translate(921,641)"/>
<path d="M0 0 C0.33 0.66 0.66 1.32 1 2 C3.8159849 2.46898963 3.8159849 2.46898963 7.0625 2.625 C8.71958984 2.73714844 8.71958984 2.73714844 10.41015625 2.8515625 C11.26480469 2.90054688 12.11945312 2.94953125 13 3 C13 3.33 13 3.66 13 4 C5.74 4.66 -1.52 5.32 -9 6 C-9 5.34 -9 4.68 -9 4 C-8.43410156 3.79503906 -7.86820313 3.59007812 -7.28515625 3.37890625 C-6.55167969 3.10949219 -5.81820312 2.84007812 -5.0625 2.5625 C-4.33160156 2.29566406 -3.60070312 2.02882813 -2.84765625 1.75390625 C-1.01694322 1.14613052 -1.01694322 1.14613052 0 0 Z " fill="#89A7B4" transform="translate(947,669)"/>
<path d="M0 0 C0.33 1.32 0.66 2.64 1 4 C-0.32 4.99 -1.64 5.98 -3 7 C-3.2475 6.360625 -3.495 5.72125 -3.75 5.0625 C-4.96621634 2.50980961 -4.96621634 2.50980961 -9 2 C-6.03 1.34 -3.06 0.68 0 0 Z " fill="#B9CDD2" transform="translate(957,654)"/>
<path d="M0 0 C1.32 0 2.64 0 4 0 C4 0.66 4 1.32 4 2 C5.65 2 7.3 2 9 2 C9.33 2.66 9.66 3.32 10 4 C3.375 4.25 3.375 4.25 0 2 C0 1.34 0 0.68 0 0 Z " fill="#B6CCD6" transform="translate(894,673)"/>
<path d="M0 0 C-0.804375 0.226875 -1.60875 0.45375 -2.4375 0.6875 C-3.283125 1.120625 -4.12875 1.55375 -5 2 C-5.89386164 4.54775306 -5.89386164 4.54775306 -6 7 C-6.66 6.34 -7.32 5.68 -8 5 C-7.625 2.375 -7.625 2.375 -7 0 C-3.86650268 -1.04449911 -3.01031744 -0.93423645 0 0 Z " fill="#E4F7F9" transform="translate(931,636)"/>
</svg>
